<svg xmlns="http://www.w3.org/2000/svg" viewBox="0 0 512 512">
  <defs>
    <linearGradient id="bg" x1="0%" y1="0%" x2="100%" y2="100%">
      <stop offset="0%" style="stop-color:#1668D0"/>
      <stop offset="100%" style="stop-color:#0F4FA8"/>
    </linearGradient>
    <linearGradient id="shine" x1="0%" y1="0%" x2="0%" y2="100%">
      <stop offset="0%" style="stop-color:#ffffff;stop-opacity:0.25"/>
      <stop offset="100%" style="stop-color:#ffffff;stop-opacity:0"/>
    </linearGradient>
  </defs>
  <rect width="512" height="512" rx="106" fill="url(#bg)"/>
  <rect width="512" height="256" rx="106" fill="url(#shine)"/>
  <!-- Building -->
  <rect x="150" y="210" width="212" height="192" rx="10" fill="rgba(255,255,255,0.15)"/>
  <rect x="170" y="192" width="172" height="212" rx="10" fill="rgba(255,255,255,0.22)"/>
  <!-- Windows row 1 -->
  <rect x="190" y="220" width="38" height="32" rx="5" fill="rgba(255,255,255,0.85)"/>
  <rect x="245" y="220" width="38" height="32" rx="5" fill="rgba(255,255,255,0.85)"/>
  <rect x="300" y="220" width="22" height="32" rx="5" fill="rgba(255,255,255,0.85)"/>
  <!-- Windows row 2 -->
  <rect x="190" y="268" width="38" height="32" rx="5" fill="rgba(255,255,255,0.6)"/>
  <rect x="245" y="268" width="38" height="32" rx="5" fill="rgba(255,255,255,0.85)"/>
  <rect x="300" y="268" width="22" height="32" rx="5" fill="rgba(255,255,255,0.6)"/>
  <!-- Door -->
  <rect x="234" y="340" width="44" height="64" rx="6" fill="rgba(255,255,255,0.92)"/>
  <!-- Chart bars -->
  <rect x="314" y="316" width="22" height="48" rx="5" fill="rgba(255,255,255,0.7)"/>
  <rect x="346" y="295" width="22" height="69" rx="5" fill="rgba(255,255,255,0.92)"/>
  <!-- Trend arrow -->
  <polyline points="314,256 338,224 358,240" stroke="rgba(255,255,255,0.95)" stroke-width="9" fill="none" stroke-linecap="round" stroke-linejoin="round"/>
  <polygon points="358,228 370,250 348,247" fill="rgba(255,255,255,0.95)"/>
</svg>
